<svg xmlns="http://www.w3.org/2000/svg" viewBox="0 0 120 120" width="100%" height="100%">
  <!-- Soft Green Background Circle -->
  <circle cx="60" cy="60" r="54" fill="#D1FAE5" />

  <!-- Shopping Bag Handle -->
  <path 
    d="M42 48 V36 C42 24 78 24 78 36 V48" 
    fill="none" 
    stroke="#059669" 
    stroke-width="6" 
    stroke-linecap="round" 
    stroke-linejoin="round" 
  />

  <!-- Shopping Bag Body -->
  <rect 
    x="26" 
    y="44" 
    width="68" 
    height="50" 
    rx="8" 
    fill="#10B981" 
  />

  <!-- Success Checkmark -->
  <path 
    d="M42 70 L54 82 L78 56" 
    fill="none" 
    stroke="#FFFFFF" 
    stroke-width="8" 
    stroke-linecap="round" 
    stroke-linejoin="round" 
  />

  <!-- Top Left Sparkle -->
  <path 
    d="M22 28 L25 20 L33 17 L25 14 L22 6 L19 14 L11 17 L19 20 Z" 
    fill="#F59E0B" 
  />

  <!-- Top Right Sparkle -->
  <path 
    d="M96 42 L98 36 L104 34 L98 32 L96 26 L94 32 L88 34 L94 36 Z" 
    fill="#FCD34D" 
  />
  
  <!-- Small Bottom Sparkle -->
  <circle cx="92" cy="80" r="4" fill="#F59E0B" />
  <circle cx="20" cy="74" r="3" fill="#10B981" />
</svg>
